<?xml version="1.0" encoding="UTF-8" ?>
<!DOCTYPE svg PUBLIC "-//W3C//DTD SVG 1.1//EN" "http://www.w3.org/Graphics/SVG/1.1/DTD/svg11.dtd">
<svg width="256pt" height="256pt" viewBox="0 0 256 256" version="1.1" xmlns="http://www.w3.org/2000/svg">
<g id="#ffffffff">
</g>
<g id="#616161ff">
<path fill="#616161" opacity="1.00" d=" M 43.02 24.86 C 59.42 12.06 80.21 5.00 101.03 5.21 C 122.31 5.05 143.49 12.60 160.03 25.95 C 185.26 45.82 199.02 79.26 194.79 111.11 C 192.89 128.07 186.02 144.33 175.66 157.86 C 180.90 163.07 186.15 168.27 191.32 173.55 C 186.01 179.44 180.31 184.98 174.54 190.41 C 169.53 184.95 164.05 179.93 158.93 174.57 C 145.12 185.28 128.32 192.13 110.93 193.95 C 93.81 195.89 76.16 192.81 60.56 185.51 C 40.01 175.92 23.18 158.68 14.14 137.88 C 5.65 118.87 3.98 97.00 8.98 76.83 C 13.96 56.29 26.32 37.76 43.02 24.86 M 90.40 23.60 C 69.08 26.32 49.37 38.70 37.31 56.43 C 25.99 72.70 21.64 93.48 25.02 112.97 C 28.14 131.38 38.35 148.47 52.99 160.05 C 65.18 169.87 80.48 175.66 96.10 176.59 C 111.85 177.63 127.87 173.57 141.28 165.24 C 155.00 156.74 166.01 143.85 172.05 128.86 C 179.66 110.50 179.60 89.17 172.08 70.79 C 165.86 55.40 154.45 42.20 140.18 33.74 C 125.40 24.75 107.51 21.30 90.40 23.60 Z" />
</g>
<g id="#64b5f6ff">
<path fill="#64b5f6" opacity="1.00" d=" M 90.40 23.60 C 107.51 21.30 125.40 24.75 140.18 33.74 C 154.45 42.20 165.86 55.40 172.08 70.79 C 179.60 89.17 179.66 110.50 172.05 128.86 C 166.01 143.85 155.00 156.74 141.28 165.24 C 127.87 173.57 111.85 177.63 96.10 176.59 C 80.48 175.66 65.18 169.87 52.99 160.05 C 38.35 148.47 28.14 131.38 25.02 112.97 C 21.64 93.48 25.99 72.70 37.31 56.43 C 49.37 38.70 69.08 26.32 90.40 23.60 M 89.50 47.79 C 77.99 50.27 67.29 56.67 59.79 65.75 C 56.62 69.24 59.63 75.10 64.06 75.40 C 66.87 75.61 68.78 73.30 70.53 71.49 C 78.52 62.90 90.31 58.04 102.03 58.43 C 113.08 58.62 123.80 63.68 131.37 71.66 C 133.37 73.68 135.76 76.45 138.96 75.43 C 142.88 74.46 143.89 69.22 142.02 66.09 C 129.82 50.77 108.59 43.41 89.50 47.79 Z" />
</g>
<g id="#bbdefbff">
<path fill="#bbdefb" opacity="1.00" d=" M 89.50 47.79 C 108.59 43.41 129.82 50.77 142.02 66.09 C 143.89 69.22 142.88 74.46 138.96 75.43 C 135.76 76.45 133.37 73.68 131.37 71.66 C 123.80 63.68 113.08 58.62 102.03 58.43 C 90.31 58.04 78.52 62.90 70.53 71.49 C 68.78 73.30 66.87 75.61 64.06 75.40 C 59.63 75.10 56.62 69.24 59.79 65.75 C 67.29 56.67 77.99 50.27 89.50 47.79 Z" />
</g>
<g id="#36474fff">
<path fill="#36474f" opacity="1.00" d=" M 174.54 190.41 C 180.31 184.98 186.01 179.44 191.32 173.55 C 208.51 190.79 225.76 207.97 242.97 225.20 C 237.33 230.82 231.73 236.48 226.07 242.08 C 208.87 224.87 191.53 207.81 174.54 190.41 Z" />
</g>
</svg>
